<svg width="1076" height="1076" viewBox="0 0 1076 1076" fill="none" xmlns="http://www.w3.org/2000/svg">
<rect width="1076" height="1076" rx="538" fill="#121212"/>
<path fill-rule="evenodd" clip-rule="evenodd" d="M283.103 300.581L758.53 215.63C816.55 205.241 864.024 245.306 864 313.066V767.099C864 828.431 816.599 871.219 758.67 860.295L282.986 770.476C243.953 763.116 212 725.801 212 678.701V391.681C212 345.723 244 307.569 283.103 300.581ZM601.501 243.688V407.399C576.855 384.325 545.215 370.386 507.965 370.386C412.271 370.386 342.604 447.929 342.604 554.248C342.604 661.208 412.271 738.106 507.965 738.106C550.179 738.106 585.358 718.549 611.385 689.173L618.421 729.059H692.965V227.345L601.501 243.688ZM518.454 656.963C468.513 656.963 435.45 616.436 435.45 554.203C435.45 491.976 468.513 451.444 518.454 451.444C572.624 451.444 601.458 491.976 601.458 554.203C601.458 616.436 572.624 656.963 518.454 656.963Z" fill="#00E88F"/>
</svg>
