<svg width="240" height="240" viewBox="0 0 240 240" fill="none" xmlns="http://www.w3.org/2000/svg">
<g clip-path="url(#clip0_844_104)">
<rect width="240" height="240" rx="120" fill="#432965"/>
<g clip-path="url(#clip1_844_104)">
<path d="M171.542 171.346C167.626 171.346 163.711 171.346 159.945 171.346C159.041 171.346 158.137 171.202 157.234 171.058C154.975 170.483 154.071 168.899 153.921 166.884C153.77 164.437 153.921 161.99 153.921 159.543C153.921 156.233 153.921 152.922 153.921 149.612C153.921 148.46 154.071 147.453 154.824 146.445C155.728 145.15 157.084 144.574 158.589 144.43C159.493 144.286 160.247 144.286 161.151 144.286C168.38 144.286 175.609 144.286 182.688 144.286C183.592 144.286 184.495 144.43 185.249 144.574C187.357 145.15 188.562 146.733 188.713 148.892C188.713 151.915 188.713 154.938 188.713 157.96C188.713 160.839 188.713 163.718 188.713 166.74C188.713 167.604 188.562 168.324 188.261 169.043C187.658 170.339 186.454 170.914 185.098 171.346C184.646 171.49 184.194 171.49 183.742 171.49C179.526 171.346 175.459 171.346 171.542 171.346ZM160.699 165.877C167.777 165.877 174.705 165.877 181.785 165.877C181.785 160.263 181.785 154.793 181.785 149.18C181.634 149.18 181.483 149.18 181.483 149.18C174.705 149.18 167.928 149.18 161.3 149.18C160.849 149.18 160.849 149.324 160.849 149.612C160.849 154.218 160.849 158.824 160.849 163.43C160.699 164.293 160.699 165.157 160.699 165.877Z" fill="white"/>
<path d="M103.921 144.156C104.223 144.156 104.373 144.156 104.373 144.156C106.482 144.156 108.59 144.156 110.85 144.156C111.301 144.156 111.603 144.3 111.753 144.588C112.808 146.459 114.013 148.33 115.218 150.202C117.627 154.52 120.037 158.838 122.447 163.156C122.447 163.3 122.598 163.3 122.748 163.588C122.748 163.444 122.899 163.444 122.899 163.3C124.405 160.565 126.062 157.686 127.568 154.952C129.225 152.217 130.731 149.482 132.388 146.747C132.84 146.027 133.291 145.452 133.743 144.732C134.045 144.3 134.346 144.156 134.798 144.156C136.605 144.156 138.262 144.156 140.069 144.156C140.22 144.156 140.371 144.156 140.672 144.156C140.521 144.444 140.521 144.588 140.371 144.876C138.262 148.762 136.153 152.649 133.894 156.391C131.635 160.277 129.375 164.308 127.116 168.194C126.514 169.057 125.911 170.065 125.309 170.929C125.008 171.36 124.706 171.504 124.254 171.504C123.2 171.504 122.146 171.504 121.092 171.504C120.489 171.504 120.188 171.216 120.037 170.929C119.134 169.489 118.23 168.05 117.326 166.467C113.711 160.421 110.097 154.52 106.482 148.474C105.729 147.179 104.976 146.027 104.223 144.732C104.072 144.444 104.072 144.3 103.921 144.156Z" fill="white"/>
<path d="M69.7307 165.891C69.4295 166.467 69.4295 167.042 69.1283 167.474C68.5258 168.626 67.7726 169.633 67.1702 170.785C67.0196 171.073 66.7184 171.216 66.4172 171.216C61.2962 171.216 56.3259 171.216 51.2049 171.216C50.7531 171.216 50.4518 171.216 50 171.216C50 170.929 50 170.929 50 170.785C50 162.149 50 153.656 50 145.02C50 144.3 50 144.156 50.9037 144.156C52.7111 144.156 54.5185 144.156 56.3259 144.156C56.7777 144.156 56.7777 144.3 56.7777 144.588C56.7777 150.058 56.7777 155.671 56.7777 161.141C56.7777 162.58 56.7777 164.02 56.7777 165.315C56.7777 165.747 56.9283 165.891 57.2296 165.891C60.995 165.891 64.6098 165.891 68.3751 165.891C68.6763 165.891 69.1283 165.891 69.7307 165.891Z" fill="white"/>
<path d="M85.6819 157.386C85.6819 153.068 85.6819 148.75 85.6819 144.432C85.6819 144 85.8325 144 86.1338 144C88.2423 144 90.2004 144 92.309 144C92.6103 144 92.6103 144.144 92.6103 144.432C92.6103 146.591 92.6103 148.606 92.6103 150.765C92.6103 157.242 92.6103 163.719 92.6103 170.197C92.6103 171.204 92.4595 171.348 91.4053 171.348C89.7484 171.348 88.0917 171.348 86.435 171.348C85.9831 171.348 85.8325 171.204 85.8325 170.772C85.8325 170.484 85.8325 170.197 85.8325 169.909C85.6819 165.735 85.6819 161.56 85.6819 157.386Z" fill="white"/>
</g>
<path d="M119.867 132C104.998 132 89.8629 132 74.9937 132C74.4624 132 73.666 132 73.135 131.749C70.4798 130.996 69.4175 129.741 69.4175 127.231C69.4175 125.223 69.4175 123.215 69.4175 121.458C69.4175 120.705 69.1521 120.203 68.3556 120.203C66.2314 120.203 64.1072 120.203 61.9829 120.203C58.531 120.203 58 119.701 58 116.438C58 106.9 58 97.1115 58 87.5737C58 87.0719 58 86.8208 58 86.3187C58.2655 85.0637 58.7965 84.5616 60.1242 84.3106C62.5139 84.3106 64.9036 84.3106 67.2933 84.3106C67.5588 84.3106 67.8243 84.3106 68.0898 84.3106C69.683 84.3106 69.683 84.3109 69.683 82.8049C69.683 79.7928 69.683 76.7808 69.683 73.7691C69.683 71.2592 71.2763 69.5018 73.9315 69.2511C75.5247 69 77.3834 69 78.9763 69C106.325 69 133.94 69 161.289 69C162.882 69 164.475 69 166.069 69.2511C168.989 69.5018 170.582 71.2589 170.582 74.0198C170.582 77.0319 170.582 80.0439 170.582 83.0556C170.582 84.5616 170.582 84.5616 172.176 84.5616C174.565 84.5616 177.221 84.5616 179.61 84.5616C181.469 84.5616 182 85.3148 182 87.0719C182 97.1115 182 107.402 182 117.442C182 119.45 181.469 120.203 179.345 120.203C176.955 120.203 174.565 120.203 172.176 120.203C171.113 120.203 170.582 120.454 170.582 121.458C170.582 123.466 170.582 125.223 170.582 127.231C170.582 130.243 168.989 132 165.803 132C163.944 132 161.82 132 159.961 132C146.685 132 133.409 132 119.867 132ZM97.032 111.92C97.032 110.414 96.501 108.657 95.1733 107.152C93.3149 105.143 90.6594 104.892 88.5355 106.398C85.0835 109.159 85.0835 114.932 88.5355 117.693C90.3939 119.199 93.0494 119.199 94.9078 117.442C96.501 116.187 97.032 114.43 97.032 111.92ZM153.854 111.92C153.854 110.665 153.323 109.159 152.527 107.653C150.668 105.143 147.747 104.641 145.623 106.398C142.171 109.159 142.171 115.183 145.889 117.944C147.482 119.199 149.606 119.199 151.465 117.944C153.058 116.689 153.589 114.681 153.854 111.92Z" fill="white"/>
<g filter="url(#filter0_i_844_104)">
<rect width="240" height="240" rx="120" fill="#6A1CA7" fill-opacity="0.01"/>
</g>
</g>
<defs>
<filter id="filter0_i_844_104" x="0" y="0" width="240" height="240" filterUnits="userSpaceOnUse" color-interpolation-filters="sRGB">
<feFlood flood-opacity="0" result="BackgroundImageFix"/>
<feBlend mode="normal" in="SourceGraphic" in2="BackgroundImageFix" result="shape"/>
<feColorMatrix in="SourceAlpha" type="matrix" values="0 0 0 0 0 0 0 0 0 0 0 0 0 0 0 0 0 0 127 0" result="hardAlpha"/>
<feOffset/>
<feGaussianBlur stdDeviation="19.35"/>
<feComposite in2="hardAlpha" operator="arithmetic" k2="-1" k3="1"/>
<feColorMatrix type="matrix" values="0 0 0 0 0.537255 0 0 0 0 0.337255 0 0 0 0 0.690196 0 0 0 1 0"/>
<feBlend mode="normal" in2="shape" result="effect1_innerShadow_844_104"/>
</filter>
<clipPath id="clip0_844_104">
<rect width="240" height="240" rx="120" fill="white"/>
</clipPath>
<clipPath id="clip1_844_104">
<rect width="139" height="28" fill="white" transform="translate(50 144)"/>
</clipPath>
</defs>
</svg>
